<?xml version="1.0" encoding="UTF-8" standalone="no"?><svg xmlns="http://www.w3.org/2000/svg" xmlns:xlink="http://www.w3.org/1999/xlink" contentScriptType="application/ecmascript" contentStyleType="text/css" height="118px" preserveAspectRatio="none" style="width:418px;height:118px;" version="1.1" viewBox="0 0 418 118" width="418px" zoomAndPan="magnify"><defs><filter height="300%" id="f10py7nig6y8su" width="300%" x="-1" y="-1"><feGaussianBlur result="blurOut" stdDeviation="2.0"/><feColorMatrix in="blurOut" result="blurOut2" type="matrix" values="0 0 0 0 0 0 0 0 0 0 0 0 0 0 0 0 0 0 .4 0"/><feOffset dx="4.0" dy="4.0" in="blurOut2" result="blurOut3"/><feBlend in="SourceGraphic" in2="blurOut3" mode="normal"/></filter></defs><g><!--MD5=[3fd616f346a44cd59a91eb10b19e157c]
class User--><rect fill="#FEFECE" filter="url(#f10py7nig6y8su)" height="99.5625" id="User" style="stroke: #A80036; stroke-width: 1.5;" width="152" x="255.5" y="8"/><ellipse cx="314.75" cy="24" fill="#ADD1B2" rx="11" ry="11" style="stroke: #A80036; stroke-width: 1.0;"/><path d="M314.7969,30.2031 C316.2969,30.2031 317.5313,29.6406 318.4375,28.5781 L317.0625,27.0625 C316.5156,27.6563 315.8594,28.0469 315.0625,28.0469 C313.3906,28.0469 312.2344,26.7188 312.2344,24.4375 C312.2344,22.2188 313.3906,20.875 314.9531,20.875 C315.7656,20.875 316.3594,21.1875 316.8906,21.6719 L318.2656,20.125 C317.5156,19.3906 316.3594,18.7188 314.9531,18.7188 C312,18.7188 309.6719,20.8594 309.6719,24.5313 C309.6719,28.25 312.0469,30.2031 314.7969,30.2031 Z "/><text fill="#000000" font-family="sans-serif" font-size="12" lengthAdjust="spacingAndGlyphs" textLength="25" x="335.25" y="28.1016">User</text><line style="stroke: #A80036; stroke-width: 1.5;" x1="256.5" x2="406.5" y1="40" y2="40"/><ellipse cx="266.5" cy="51" fill="none" rx="3" ry="3" style="stroke: #038048; stroke-width: 1.0;"/><text fill="#000000" font-family="sans-serif" font-size="11" lengthAdjust="spacingAndGlyphs" textLength="17" x="275.5" y="54.2051">uid</text><ellipse cx="266.5" cy="63.8906" fill="none" rx="3" ry="3" style="stroke: #038048; stroke-width: 1.0;"/><text fill="#000000" font-family="sans-serif" font-size="11" lengthAdjust="spacingAndGlyphs" textLength="32" x="275.5" y="67.0957">name</text><rect fill="none" height="6" style="stroke: #C82930; stroke-width: 1.0;" width="6" x="263.5" y="73.7813"/><text fill="#000000" font-family="sans-serif" font-size="11" lengthAdjust="spacingAndGlyphs" textLength="43" x="275.5" y="79.9863">_groups</text><line style="stroke: #A80036; stroke-width: 1.5;" x1="256.5" x2="406.5" y1="86.6719" y2="86.6719"/><ellipse cx="266.5" cy="97.6719" fill="#84BE84" rx="3" ry="3" style="stroke: #038048; stroke-width: 1.0;"/><text fill="#000000" font-family="sans-serif" font-size="11" lengthAdjust="spacingAndGlyphs" textLength="126" x="275.5" y="100.877">hasGroup(groupName)</text><!--MD5=[aea28b81cae0a8aa60424a571cc2f050]
class UserFactory--><rect fill="#FEFECE" filter="url(#f10py7nig6y8su)" height="60.8906" id="UserFactory" style="stroke: #A80036; stroke-width: 1.5;" width="149" x="6" y="27.5"/><ellipse cx="44.4" cy="43.5" fill="#ADD1B2" rx="11" ry="11" style="stroke: #A80036; stroke-width: 1.0;"/><path d="M44.4469,49.7031 C45.9469,49.7031 47.1813,49.1406 48.0875,48.0781 L46.7125,46.5625 C46.1656,47.1563 45.5094,47.5469 44.7125,47.5469 C43.0406,47.5469 41.8844,46.2188 41.8844,43.9375 C41.8844,41.7188 43.0406,40.375 44.6031,40.375 C45.4156,40.375 46.0094,40.6875 46.5406,41.1719 L47.9156,39.625 C47.1656,38.8906 46.0094,38.2188 44.6031,38.2188 C41.65,38.2188 39.3219,40.3594 39.3219,44.0313 C39.3219,47.75 41.6969,49.7031 44.4469,49.7031 Z "/><text fill="#000000" font-family="sans-serif" font-size="12" lengthAdjust="spacingAndGlyphs" textLength="65" x="63.6" y="47.6016">UserFactory</text><line style="stroke: #A80036; stroke-width: 1.5;" x1="7" x2="154" y1="59.5" y2="59.5"/><line style="stroke: #A80036; stroke-width: 1.5;" x1="7" x2="154" y1="67.5" y2="67.5"/><ellipse cx="17" cy="78.5" fill="#84BE84" rx="3" ry="3" style="stroke: #038048; stroke-width: 1.0;"/><text fill="#000000" font-family="sans-serif" font-size="11" lengthAdjust="spacingAndGlyphs" textLength="123" x="26" y="81.7051">getCurrentUser() : User</text><!--MD5=[d70e4599d83ccf4c06eac7a9d983bfce]
link UserFactory to User--><path d="M155.1287,58 C186.7759,58 223.6182,58 255.4213,58 " fill="none" id="UserFactory-User" style="stroke: #A80036; stroke-width: 1.0;"/><text fill="#000000" font-family="sans-serif" font-size="13" lengthAdjust="spacingAndGlyphs" textLength="51" x="173.25" y="51.0605">создает</text><polygon fill="#000000" points="227.25,45.1172,233.25,48.1172,227.25,51.1172,227.25,45.1172" style="stroke: #000000; stroke-width: 1.0;"/><!--MD5=[0406fc30a96e2afa4a6d3cb5264dd8e8]
@startuml entities

class User{
    + uid
    + name
    - _groups
    + hasGroup(groupName)
}

class UserFactory {
    + getCurrentUser() : User
}

UserFactory - User : создает >

@enduml

PlantUML version 1.2020.09(Sun May 10 14:51:06 SAMT 2020)
(GPL source distribution)
Java Runtime: OpenJDK Runtime Environment
JVM: OpenJDK 64-Bit Server VM
Java Version: 11.0.10+9-suse-lp152.2.9.1-x8664
Operating System: Linux
Default Encoding: UTF-8
Language: ru
Country: RU
--></g></svg>