<?xml version="1.0" encoding="UTF-8" standalone="no"?><svg xmlns="http://www.w3.org/2000/svg" xmlns:xlink="http://www.w3.org/1999/xlink" contentScriptType="application/ecmascript" contentStyleType="text/css" height="72px" preserveAspectRatio="none" style="width:137px;height:72px;" version="1.1" viewBox="0 0 137 72" width="137px" zoomAndPan="magnify"><defs><filter height="300%" id="f1bogbucbfe0lj" width="300%" x="-1" y="-1"><feGaussianBlur result="blurOut" stdDeviation="2.0"/><feColorMatrix in="blurOut" result="blurOut2" type="matrix" values="0 0 0 0 0 0 0 0 0 0 0 0 0 0 0 0 0 0 .4 0"/><feOffset dx="4.0" dy="4.0" in="blurOut2" result="blurOut3"/><feBlend in="SourceGraphic" in2="blurOut3" mode="normal"/></filter></defs><g><!--MD5=[3fd616f346a44cd59a91eb10b19e157c]
class User--><rect fill="#FEFECE" filter="url(#f1bogbucbfe0lj)" height="54.125" id="User" style="stroke: #A80036; stroke-width: 1.5;" width="119" x="7" y="7"/><ellipse cx="22" cy="26.0625" fill="#ADD1B2" rx="11" ry="11" style="stroke: #A80036; stroke-width: 1.0;"/><path d="M22.0469,32.2656 C23.5469,32.2656 24.7813,31.7031 25.6875,30.6406 L24.3125,29.125 C23.7656,29.7188 23.1094,30.1094 22.3125,30.1094 C20.6406,30.1094 19.4844,28.7813 19.4844,26.5 C19.4844,24.2813 20.6406,22.9375 22.2031,22.9375 C23.0156,22.9375 23.6094,23.25 24.1406,23.7344 L25.5156,22.1875 C24.7656,21.4531 23.6094,20.7813 22.2031,20.7813 C19.25,20.7813 16.9219,22.9219 16.9219,26.5938 C16.9219,30.3125 19.2969,32.2656 22.0469,32.2656 Z "/><text fill="#000000" font-family="sans-serif" font-size="12" font-style="italic" lengthAdjust="spacingAndGlyphs" textLength="91" x="34" y="23.1328">«Пользователь»</text><text fill="#000000" font-family="sans-serif" font-size="12" lengthAdjust="spacingAndGlyphs" textLength="25" x="67" y="37.1953">User</text><line style="stroke: #A80036; stroke-width: 1.5;" x1="8" x2="125" y1="45.125" y2="45.125"/><line style="stroke: #A80036; stroke-width: 1.5;" x1="8" x2="125" y1="53.125" y2="53.125"/><!--MD5=[a20cdfabc211561d3814539448856558]
@startuml

class User <<Пользователь>> {
}


@enduml

PlantUML version 1.2020.09(Sun May 10 14:51:06 SAMT 2020)
(GPL source distribution)
Java Runtime: OpenJDK Runtime Environment
JVM: OpenJDK 64-Bit Server VM
Java Version: 11.0.9+11-suse-lp152.2.6.2-x8664
Operating System: Linux
Default Encoding: UTF-8
Language: ru
Country: RU
--></g></svg>