<?xml version="1.0" encoding="UTF-8" standalone="no"?><svg xmlns="http://www.w3.org/2000/svg" xmlns:xlink="http://www.w3.org/1999/xlink" contentScriptType="application/ecmascript" contentStyleType="text/css" height="215px" preserveAspectRatio="none" style="width:766px;height:215px;" version="1.1" viewBox="0 0 766 215" width="766px" zoomAndPan="magnify"><defs><filter height="300%" id="f18rvcebq09go5" width="300%" x="-1" y="-1"><feGaussianBlur result="blurOut" stdDeviation="2.0"/><feColorMatrix in="blurOut" result="blurOut2" type="matrix" values="0 0 0 0 0 0 0 0 0 0 0 0 0 0 0 0 0 0 .4 0"/><feOffset dx="4.0" dy="4.0" in="blurOut2" result="blurOut3"/><feBlend in="SourceGraphic" in2="blurOut3" mode="normal"/></filter></defs><g><!--MD5=[3fd616f346a44cd59a91eb10b19e157c]
class User--><rect fill="#FEFECE" filter="url(#f18rvcebq09go5)" height="86.6719" id="User" style="stroke: #A80036; stroke-width: 1.5;" width="152" x="255.5" y="8"/><ellipse cx="314.75" cy="24" fill="#ADD1B2" rx="11" ry="11" style="stroke: #A80036; stroke-width: 1.0;"/><path d="M314.7969,30.2031 C316.2969,30.2031 317.5313,29.6406 318.4375,28.5781 L317.0625,27.0625 C316.5156,27.6563 315.8594,28.0469 315.0625,28.0469 C313.3906,28.0469 312.2344,26.7188 312.2344,24.4375 C312.2344,22.2188 313.3906,20.875 314.9531,20.875 C315.7656,20.875 316.3594,21.1875 316.8906,21.6719 L318.2656,20.125 C317.5156,19.3906 316.3594,18.7188 314.9531,18.7188 C312,18.7188 309.6719,20.8594 309.6719,24.5313 C309.6719,28.25 312.0469,30.2031 314.7969,30.2031 Z "/><text fill="#000000" font-family="sans-serif" font-size="12" lengthAdjust="spacingAndGlyphs" textLength="25" x="335.25" y="28.1016">User</text><line style="stroke: #A80036; stroke-width: 1.5;" x1="256.5" x2="406.5" y1="40" y2="40"/><ellipse cx="266.5" cy="51" fill="none" rx="3" ry="3" style="stroke: #038048; stroke-width: 1.0;"/><text fill="#000000" font-family="sans-serif" font-size="11" lengthAdjust="spacingAndGlyphs" textLength="28" x="275.5" y="54.2051">code</text><ellipse cx="266.5" cy="63.8906" fill="none" rx="3" ry="3" style="stroke: #038048; stroke-width: 1.0;"/><text fill="#000000" font-family="sans-serif" font-size="11" lengthAdjust="spacingAndGlyphs" textLength="32" x="275.5" y="67.0957">name</text><line style="stroke: #A80036; stroke-width: 1.5;" x1="256.5" x2="406.5" y1="73.7813" y2="73.7813"/><ellipse cx="266.5" cy="84.7813" fill="#84BE84" rx="3" ry="3" style="stroke: #038048; stroke-width: 1.0;"/><text fill="#000000" font-family="sans-serif" font-size="11" lengthAdjust="spacingAndGlyphs" textLength="126" x="275.5" y="87.9863">hasGroup(groupName)</text><path d="M442.5,26.5 L442.5,42.7344 L401.5,84.2266 L442.5,50.7344 L442.5,66.9688 A0,0 0 0 0 442.5,66.9688 L754.5,66.9688 A0,0 0 0 0 754.5,66.9688 L754.5,36.5 L744.5,26.5 L442.5,26.5 A0,0 0 0 0 442.5,26.5 " fill="#FBFB77" filter="url(#f18rvcebq09go5)" style="stroke: #A80036; stroke-width: 1.0;"/><path d="M744.5,26.5 L744.5,36.5 L754.5,36.5 L744.5,26.5 " fill="#FBFB77" style="stroke: #A80036; stroke-width: 1.0;"/><text fill="#000000" font-family="sans-serif" font-size="13" lengthAdjust="spacingAndGlyphs" textLength="213" x="448.5" y="43.5605">Метод проверяет наличие группы,</text><text fill="#000000" font-family="sans-serif" font-size="13" lengthAdjust="spacingAndGlyphs" textLength="165" x="448.5" y="58.7949">у пользователя используя</text><a href="https://www.npmjs.com/package/posix#posixgetgrnamgroup" target="_top" title="https://www.npmjs.com/package/posix#posixgetgrnamgroup" xlink:actuate="onRequest" xlink:href="https://www.npmjs.com/package/posix#posixgetgrnamgroup" xlink:show="new" xlink:title="https://www.npmjs.com/package/posix#posixgetgrnamgroup" xlink:type="simple"><text fill="#0000FF" font-family="sans-serif" font-size="13" lengthAdjust="spacingAndGlyphs" text-decoration="underline" textLength="123" x="616.5" y="58.7949">posixgetgrnamgroup</text></a><!--MD5=[aea28b81cae0a8aa60424a571cc2f050]
class UserFactory--><rect fill="#FEFECE" filter="url(#f18rvcebq09go5)" height="60.8906" id="UserFactory" style="stroke: #A80036; stroke-width: 1.5;" width="149" x="6" y="21"/><ellipse cx="44.4" cy="37" fill="#ADD1B2" rx="11" ry="11" style="stroke: #A80036; stroke-width: 1.0;"/><path d="M44.4469,43.2031 C45.9469,43.2031 47.1813,42.6406 48.0875,41.5781 L46.7125,40.0625 C46.1656,40.6563 45.5094,41.0469 44.7125,41.0469 C43.0406,41.0469 41.8844,39.7188 41.8844,37.4375 C41.8844,35.2188 43.0406,33.875 44.6031,33.875 C45.4156,33.875 46.0094,34.1875 46.5406,34.6719 L47.9156,33.125 C47.1656,32.3906 46.0094,31.7188 44.6031,31.7188 C41.65,31.7188 39.3219,33.8594 39.3219,37.5313 C39.3219,41.25 41.6969,43.2031 44.4469,43.2031 Z "/><text fill="#000000" font-family="sans-serif" font-size="12" lengthAdjust="spacingAndGlyphs" textLength="65" x="63.6" y="41.1016">UserFactory</text><line style="stroke: #A80036; stroke-width: 1.5;" x1="7" x2="154" y1="53" y2="53"/><line style="stroke: #A80036; stroke-width: 1.5;" x1="7" x2="154" y1="61" y2="61"/><ellipse cx="17" cy="72" fill="#84BE84" rx="3" ry="3" style="stroke: #038048; stroke-width: 1.0;"/><text fill="#000000" font-family="sans-serif" font-size="11" lengthAdjust="spacingAndGlyphs" textLength="123" x="26" y="75.2051">getCurrentUser() : User</text><!--MD5=[2283b96e18be6b1d552195b0655bf90f]
class RuUser--><rect fill="#FEFECE" filter="url(#f18rvcebq09go5)" height="48" id="RuUser" style="stroke: #A80036; stroke-width: 1.5;" width="72" x="295.5" y="156"/><ellipse cx="310.5" cy="172" fill="#ADD1B2" rx="11" ry="11" style="stroke: #A80036; stroke-width: 1.0;"/><path d="M310.5469,178.2031 C312.0469,178.2031 313.2813,177.6406 314.1875,176.5781 L312.8125,175.0625 C312.2656,175.6563 311.6094,176.0469 310.8125,176.0469 C309.1406,176.0469 307.9844,174.7188 307.9844,172.4375 C307.9844,170.2188 309.1406,168.875 310.7031,168.875 C311.5156,168.875 312.1094,169.1875 312.6406,169.6719 L314.0156,168.125 C313.2656,167.3906 312.1094,166.7188 310.7031,166.7188 C307.75,166.7188 305.4219,168.8594 305.4219,172.5313 C305.4219,176.25 307.7969,178.2031 310.5469,178.2031 Z "/><text fill="#000000" font-family="sans-serif" font-size="12" lengthAdjust="spacingAndGlyphs" textLength="40" x="324.5" y="176.1016">RuUser</text><line style="stroke: #A80036; stroke-width: 1.5;" x1="296.5" x2="366.5" y1="188" y2="188"/><line style="stroke: #A80036; stroke-width: 1.5;" x1="296.5" x2="366.5" y1="196" y2="196"/><path d="M403,160 L403,176 L367.5938,180 L403,184 L403,200.4688 A0,0 0 0 0 403,200.4688 L596,200.4688 A0,0 0 0 0 596,200.4688 L596,170 L586,160 L403,160 A0,0 0 0 0 403,160 " fill="#FBFB77" filter="url(#f18rvcebq09go5)" style="stroke: #A80036; stroke-width: 1.0;"/><path d="M586,160 L586,170 L596,170 L586,160 " fill="#FBFB77" style="stroke: #A80036; stroke-width: 1.0;"/><text fill="#000000" font-family="sans-serif" font-size="13" lengthAdjust="spacingAndGlyphs" textLength="143" x="409" y="177.0605">Класс заполняет name,</text><text fill="#000000" font-family="sans-serif" font-size="13" lengthAdjust="spacingAndGlyphs" textLength="172" x="409" y="192.2949">используя транслитерацию</text><!--MD5=[4ac07edb63fcbc2f7c885e8778cc3069]
link User to User$$$RIGHT--><!--MD5=[d70e4599d83ccf4c06eac7a9d983bfce]
link UserFactory to User--><path d="M155.1287,51.5 C186.7759,51.5 223.6182,51.5 255.4213,51.5 " fill="none" id="UserFactory-User" style="stroke: #A80036; stroke-width: 1.0;"/><text fill="#000000" font-family="sans-serif" font-size="13" lengthAdjust="spacingAndGlyphs" textLength="51" x="173.25" y="44.5605">создает</text><polygon fill="#000000" points="227.25,38.6172,233.25,41.6172,227.25,44.6172,227.25,38.6172" style="stroke: #000000; stroke-width: 1.0;"/><!--MD5=[3727bfa292cf9d25b455cf16aebc169c]
reverse link User to RuUser--><path d="M331.5,115.0961 C331.5,129.5445 331.5,144.0371 331.5,155.6507 " fill="none" id="User&lt;-RuUser" style="stroke: #A80036; stroke-width: 1.0;"/><polygon fill="none" points="324.5001,115.0043,331.5,95.0042,338.5001,115.0042,324.5001,115.0043" style="stroke: #A80036; stroke-width: 1.0;"/><!--MD5=[82ec269497b57c1c1e62bfe91467a79e]
@startuml entities

class User{
    + code
    + name
    + hasGroup(groupName)
}

note right of User::hasGroup
  Метод проверяет наличие группы,
  у пользователя используя [[https://www.npmjs.com/package/posix#posixgetgrnamgroup posixgetgrnamgroup]]
end note

class UserFactory {
    + getCurrentUser() : User
}

UserFactory - User : создает >

class RuUser extends User{
}

note right of RuUser
  Класс заполняет name, 
  используя транслитерацию
end note

@enduml

PlantUML version 1.2020.09(Sun May 10 14:51:06 SAMT 2020)
(GPL source distribution)
Java Runtime: OpenJDK Runtime Environment
JVM: OpenJDK 64-Bit Server VM
Java Version: 11.0.10+9-suse-lp152.2.9.1-x8664
Operating System: Linux
Default Encoding: UTF-8
Language: ru
Country: RU
--></g></svg>