<svg xmlns="http://www.w3.org/2000/svg" xmlns:xlink="http://www.w3.org/1999/xlink" contentScriptType="application/ecmascript" contentStyleType="text/css" height="240px" preserveAspectRatio="none" style="width:475px;height:240px;" version="1.1" viewBox="0 0 475 240" width="475px" zoomAndPan="magnify"><defs><filter height="300%" id="f1nt2xdlgxabnc" width="300%" x="-1" y="-1"><feGaussianBlur result="blurOut" stdDeviation="2.0"/><feColorMatrix in="blurOut" result="blurOut2" type="matrix" values="0 0 0 0 0 0 0 0 0 0 0 0 0 0 0 0 0 0 .4 0"/><feOffset dx="4.0" dy="4.0" in="blurOut2" result="blurOut3"/><feBlend in="SourceGraphic" in2="blurOut3" mode="normal"/></filter></defs><g><!--MD5=[3fd616f346a44cd59a91eb10b19e157c]
class User--><rect codeLine="1" fill="#FEFECE" filter="url(#f1nt2xdlgxabnc)" height="99.2188" id="User" style="stroke:#A80036;stroke-width:1.5;" width="140" x="7" y="7"/><ellipse cx="58.25" cy="23" fill="#ADD1B2" rx="11" ry="11" style="stroke:#A80036;stroke-width:1.0;"/><path d="M60.5938,18.6719 C59.6563,18.2344 59.0625,18.0938 58.1875,18.0938 C55.5625,18.0938 53.5625,20.1719 53.5625,22.8906 L53.5625,24.0156 C53.5625,26.5938 55.6719,28.4844 58.5625,28.4844 C59.7813,28.4844 60.9375,28.1875 61.6875,27.6406 C62.2656,27.2344 62.5938,26.7813 62.5938,26.3906 C62.5938,25.9375 62.2031,25.5469 61.7344,25.5469 C61.5156,25.5469 61.3125,25.625 61.125,25.8125 C60.6719,26.2969 60.6719,26.2969 60.4844,26.3906 C60.0625,26.6563 59.375,26.7813 58.6094,26.7813 C56.5625,26.7813 55.2656,25.6875 55.2656,23.9844 L55.2656,22.8906 C55.2656,21.1094 56.5156,19.7969 58.25,19.7969 C58.8281,19.7969 59.4375,19.9531 59.9063,20.2031 C60.3906,20.4844 60.5625,20.7031 60.6563,21.1094 C60.7188,21.5156 60.75,21.6406 60.8906,21.7656 C61.0313,21.9063 61.2656,22.0156 61.4844,22.0156 C61.75,22.0156 62.0156,21.875 62.1875,21.6563 C62.2969,21.5 62.3281,21.3125 62.3281,20.8906 L62.3281,19.4688 C62.3281,19.0313 62.3125,18.9063 62.2188,18.75 C62.0625,18.4844 61.7813,18.3438 61.4844,18.3438 C61.1875,18.3438 60.9844,18.4375 60.7656,18.75 L60.5938,18.6719 Z " fill="#000000"/><text fill="#000000" font-family="sans-serif" font-size="12" lengthAdjust="spacing" textLength="29" x="78.75" y="27.1543">User</text><line style="stroke:#A80036;stroke-width:1.5;" x1="8" x2="146" y1="39" y2="39"/><line style="stroke:#A80036;stroke-width:1.5;" x1="8" x2="146" y1="47" y2="47"/><text fill="#000000" font-family="sans-serif" font-size="11" lengthAdjust="spacing" textLength="45" x="13" y="61.2104">getUid()</text><text fill="#000000" font-family="sans-serif" font-size="11" lengthAdjust="spacing" textLength="61" x="13" y="74.0151">getName()</text><text fill="#000000" font-family="sans-serif" font-size="11" lengthAdjust="spacing" textLength="67" x="13" y="86.8198">getGroups()</text><text fill="#000000" font-family="sans-serif" font-size="11" lengthAdjust="spacing" textLength="128" x="13" y="99.6245">hasGroup(groupName)</text><!--MD5=[d57243a185f8c04637dac29de011e163]
class PosixUser--><rect codeLine="8" fill="#FEFECE" filter="url(#f1nt2xdlgxabnc)" height="60.8047" id="PosixUser" style="stroke:#A80036;stroke-width:1.5;" width="92" x="31" y="166"/><ellipse cx="46" cy="182" fill="#ADD1B2" rx="11" ry="11" style="stroke:#A80036;stroke-width:1.0;"/><path d="M48.3438,177.6719 C47.4063,177.2344 46.8125,177.0938 45.9375,177.0938 C43.3125,177.0938 41.3125,179.1719 41.3125,181.8906 L41.3125,183.0156 C41.3125,185.5938 43.4219,187.4844 46.3125,187.4844 C47.5313,187.4844 48.6875,187.1875 49.4375,186.6406 C50.0156,186.2344 50.3438,185.7813 50.3438,185.3906 C50.3438,184.9375 49.9531,184.5469 49.4844,184.5469 C49.2656,184.5469 49.0625,184.625 48.875,184.8125 C48.4219,185.2969 48.4219,185.2969 48.2344,185.3906 C47.8125,185.6563 47.125,185.7813 46.3594,185.7813 C44.3125,185.7813 43.0156,184.6875 43.0156,182.9844 L43.0156,181.8906 C43.0156,180.1094 44.2656,178.7969 46,178.7969 C46.5781,178.7969 47.1875,178.9531 47.6563,179.2031 C48.1406,179.4844 48.3125,179.7031 48.4063,180.1094 C48.4688,180.5156 48.5,180.6406 48.6406,180.7656 C48.7813,180.9063 49.0156,181.0156 49.2344,181.0156 C49.5,181.0156 49.7656,180.875 49.9375,180.6563 C50.0469,180.5 50.0781,180.3125 50.0781,179.8906 L50.0781,178.4688 C50.0781,178.0313 50.0625,177.9063 49.9688,177.75 C49.8125,177.4844 49.5313,177.3438 49.2344,177.3438 C48.9375,177.3438 48.7344,177.4375 48.5156,177.75 L48.3438,177.6719 Z " fill="#000000"/><text fill="#000000" font-family="sans-serif" font-size="12" lengthAdjust="spacing" textLength="60" x="60" y="186.1543">PosixUser</text><line style="stroke:#A80036;stroke-width:1.5;" x1="32" x2="122" y1="198" y2="198"/><line style="stroke:#A80036;stroke-width:1.5;" x1="32" x2="122" y1="206" y2="206"/><text fill="#000000" font-family="sans-serif" font-size="11" lengthAdjust="spacing" textLength="67" x="37" y="220.2104">getGroups()</text><!--MD5=[aea28b81cae0a8aa60424a571cc2f050]
class UserFactory--><rect codeLine="11" fill="#FEFECE" filter="url(#f1nt2xdlgxabnc)" height="60.8047" id="UserFactory" style="stroke:#A80036;stroke-width:1.5;" width="107" x="182.5" y="26"/><ellipse cx="197.95" cy="42" fill="#ADD1B2" rx="11" ry="11" style="stroke:#A80036;stroke-width:1.0;"/><path d="M200.2938,37.6719 C199.3563,37.2344 198.7625,37.0938 197.8875,37.0938 C195.2625,37.0938 193.2625,39.1719 193.2625,41.8906 L193.2625,43.0156 C193.2625,45.5938 195.3719,47.4844 198.2625,47.4844 C199.4813,47.4844 200.6375,47.1875 201.3875,46.6406 C201.9656,46.2344 202.2938,45.7813 202.2938,45.3906 C202.2938,44.9375 201.9031,44.5469 201.4344,44.5469 C201.2156,44.5469 201.0125,44.625 200.825,44.8125 C200.3719,45.2969 200.3719,45.2969 200.1844,45.3906 C199.7625,45.6563 199.075,45.7813 198.3094,45.7813 C196.2625,45.7813 194.9656,44.6875 194.9656,42.9844 L194.9656,41.8906 C194.9656,40.1094 196.2156,38.7969 197.95,38.7969 C198.5281,38.7969 199.1375,38.9531 199.6063,39.2031 C200.0906,39.4844 200.2625,39.7031 200.3563,40.1094 C200.4188,40.5156 200.45,40.6406 200.5906,40.7656 C200.7313,40.9063 200.9656,41.0156 201.1844,41.0156 C201.45,41.0156 201.7156,40.875 201.8875,40.6563 C201.9969,40.5 202.0281,40.3125 202.0281,39.8906 L202.0281,38.4688 C202.0281,38.0313 202.0125,37.9063 201.9188,37.75 C201.7625,37.4844 201.4813,37.3438 201.1844,37.3438 C200.8875,37.3438 200.6844,37.4375 200.4656,37.75 L200.2938,37.6719 Z " fill="#000000"/><text fill="#000000" font-family="sans-serif" font-size="12" lengthAdjust="spacing" textLength="74" x="212.05" y="46.1543">UserFactory</text><line style="stroke:#A80036;stroke-width:1.5;" x1="183.5" x2="288.5" y1="58" y2="58"/><line style="stroke:#A80036;stroke-width:1.5;" x1="183.5" x2="288.5" y1="66" y2="66"/><text fill="#000000" font-family="sans-serif" font-size="11" lengthAdjust="spacing" textLength="95" x="188.5" y="80.2104">getCurrentUser()</text><!--MD5=[7262d148d0e7cc7f22c63147d6f338ba]
class PosixUserFactory--><rect codeLine="14" fill="#FEFECE" filter="url(#f1nt2xdlgxabnc)" height="60.8047" id="PosixUserFactory" style="stroke:#A80036;stroke-width:1.5;" width="137" x="324.5" y="26"/><ellipse cx="339.5" cy="42" fill="#ADD1B2" rx="11" ry="11" style="stroke:#A80036;stroke-width:1.0;"/><path d="M341.8438,37.6719 C340.9063,37.2344 340.3125,37.0938 339.4375,37.0938 C336.8125,37.0938 334.8125,39.1719 334.8125,41.8906 L334.8125,43.0156 C334.8125,45.5938 336.9219,47.4844 339.8125,47.4844 C341.0313,47.4844 342.1875,47.1875 342.9375,46.6406 C343.5156,46.2344 343.8438,45.7813 343.8438,45.3906 C343.8438,44.9375 343.4531,44.5469 342.9844,44.5469 C342.7656,44.5469 342.5625,44.625 342.375,44.8125 C341.9219,45.2969 341.9219,45.2969 341.7344,45.3906 C341.3125,45.6563 340.625,45.7813 339.8594,45.7813 C337.8125,45.7813 336.5156,44.6875 336.5156,42.9844 L336.5156,41.8906 C336.5156,40.1094 337.7656,38.7969 339.5,38.7969 C340.0781,38.7969 340.6875,38.9531 341.1563,39.2031 C341.6406,39.4844 341.8125,39.7031 341.9063,40.1094 C341.9688,40.5156 342,40.6406 342.1406,40.7656 C342.2813,40.9063 342.5156,41.0156 342.7344,41.0156 C343,41.0156 343.2656,40.875 343.4375,40.6563 C343.5469,40.5 343.5781,40.3125 343.5781,39.8906 L343.5781,38.4688 C343.5781,38.0313 343.5625,37.9063 343.4688,37.75 C343.3125,37.4844 343.0313,37.3438 342.7344,37.3438 C342.4375,37.3438 342.2344,37.4375 342.0156,37.75 L341.8438,37.6719 Z " fill="#000000"/><text fill="#000000" font-family="sans-serif" font-size="12" lengthAdjust="spacing" textLength="105" x="353.5" y="46.1543">PosixUserFactory</text><line style="stroke:#A80036;stroke-width:1.5;" x1="325.5" x2="460.5" y1="58" y2="58"/><line style="stroke:#A80036;stroke-width:1.5;" x1="325.5" x2="460.5" y1="66" y2="66"/><text fill="#000000" font-family="sans-serif" font-size="11" lengthAdjust="spacing" textLength="95" x="330.5" y="80.2104">getCurrentUser()</text><!--MD5=[88da3ee3ef71f60c27f72a4c2a5b40b3]
reverse link User to PosixUser--><path codeLine="18" d="M77,126.244 C77,140.1428 77,154.0553 77,165.726 " fill="none" id="User-backto-PosixUser" style="stroke:#A80036;stroke-width:1.0;"/><polygon fill="none" points="70.0001,126.154,77,106.154,84.0001,126.154,70.0001,126.154" style="stroke:#A80036;stroke-width:1.0;"/><!--MD5=[08f85729438f4ecbdaf82ddc6cfcbcee]
@startuml
class User{
    getUid()
    getName()
    getGroups()
    hasGroup(groupName)
}

class PosixUser{
    getGroups()
}
class UserFactory{
    getCurrentUser()
}
class PosixUserFactory{
    getCurrentUser() 
}

User  <|- - PosixUser
@enduml

PlantUML version 1.2021.2beta5(Unknown compile time)
(GPL source distribution)
Java Runtime: Java(TM) SE Runtime Environment
JVM: Java HotSpot(TM) 64-Bit Server VM
Default Encoding: UTF-8
Language: en
Country: US
--></g></svg>