<?xml version="1.0" encoding="UTF-8" standalone="no"?><svg xmlns="http://www.w3.org/2000/svg" xmlns:xlink="http://www.w3.org/1999/xlink" contentScriptType="application/ecmascript" contentStyleType="text/css" height="141px" preserveAspectRatio="none" style="width:766px;height:141px;" version="1.1" viewBox="0 0 766 141" width="766px" zoomAndPan="magnify"><defs><filter height="300%" id="fmg9kijl4m25k" width="300%" x="-1" y="-1"><feGaussianBlur result="blurOut" stdDeviation="2.0"/><feColorMatrix in="blurOut" result="blurOut2" type="matrix" values="0 0 0 0 0 0 0 0 0 0 0 0 0 0 0 0 0 0 .4 0"/><feOffset dx="4.0" dy="4.0" in="blurOut2" result="blurOut3"/><feBlend in="SourceGraphic" in2="blurOut3" mode="normal"/></filter></defs><g><!--MD5=[3fd616f346a44cd59a91eb10b19e157c]
class User--><rect fill="#FEFECE" filter="url(#fmg9kijl4m25k)" height="99.5625" id="User" style="stroke: #A80036; stroke-width: 1.5;" width="152" x="255.5" y="23.5"/><ellipse cx="314.75" cy="39.5" fill="#ADD1B2" rx="11" ry="11" style="stroke: #A80036; stroke-width: 1.0;"/><path d="M314.7969,45.7031 C316.2969,45.7031 317.5313,45.1406 318.4375,44.0781 L317.0625,42.5625 C316.5156,43.1563 315.8594,43.5469 315.0625,43.5469 C313.3906,43.5469 312.2344,42.2188 312.2344,39.9375 C312.2344,37.7188 313.3906,36.375 314.9531,36.375 C315.7656,36.375 316.3594,36.6875 316.8906,37.1719 L318.2656,35.625 C317.5156,34.8906 316.3594,34.2188 314.9531,34.2188 C312,34.2188 309.6719,36.3594 309.6719,40.0313 C309.6719,43.75 312.0469,45.7031 314.7969,45.7031 Z "/><text fill="#000000" font-family="sans-serif" font-size="12" lengthAdjust="spacingAndGlyphs" textLength="25" x="335.25" y="43.6016">User</text><line style="stroke: #A80036; stroke-width: 1.5;" x1="256.5" x2="406.5" y1="55.5" y2="55.5"/><ellipse cx="266.5" cy="66.5" fill="none" rx="3" ry="3" style="stroke: #038048; stroke-width: 1.0;"/><text fill="#000000" font-family="sans-serif" font-size="11" lengthAdjust="spacingAndGlyphs" textLength="17" x="275.5" y="69.7051">uid</text><ellipse cx="266.5" cy="79.3906" fill="none" rx="3" ry="3" style="stroke: #038048; stroke-width: 1.0;"/><text fill="#000000" font-family="sans-serif" font-size="11" lengthAdjust="spacingAndGlyphs" textLength="32" x="275.5" y="82.5957">name</text><rect fill="none" height="6" style="stroke: #C82930; stroke-width: 1.0;" width="6" x="263.5" y="89.2813"/><text fill="#000000" font-family="sans-serif" font-size="11" lengthAdjust="spacingAndGlyphs" textLength="43" x="275.5" y="95.4863">_groups</text><line style="stroke: #A80036; stroke-width: 1.5;" x1="256.5" x2="406.5" y1="102.1719" y2="102.1719"/><ellipse cx="266.5" cy="113.1719" fill="#84BE84" rx="3" ry="3" style="stroke: #038048; stroke-width: 1.0;"/><text fill="#000000" font-family="sans-serif" font-size="11" lengthAdjust="spacingAndGlyphs" textLength="126" x="275.5" y="116.377">hasGroup(groupName)</text><path d="M442.5,8 L442.5,31.8516 L318.5,91.7266 L442.5,39.8516 L442.5,63.7031 A0,0 0 0 0 442.5,63.7031 L735.5,63.7031 A0,0 0 0 0 735.5,63.7031 L735.5,18 L725.5,8 L442.5,8 A0,0 0 0 0 442.5,8 " fill="#FBFB77" filter="url(#fmg9kijl4m25k)" style="stroke: #A80036; stroke-width: 1.0;"/><path d="M725.5,8 L725.5,18 L735.5,18 L725.5,8 " fill="#FBFB77" style="stroke: #A80036; stroke-width: 1.0;"/><text fill="#000000" font-family="sans-serif" font-size="13" lengthAdjust="spacingAndGlyphs" textLength="205" x="448.5" y="25.0605">Это приватное свойство, доступ</text><text fill="#000000" font-family="sans-serif" font-size="13" lengthAdjust="spacingAndGlyphs" textLength="272" x="448.5" y="40.2949">к которому должен быть реализован через</text><text fill="#000000" font-family="sans-serif" font-size="13" lengthAdjust="spacingAndGlyphs" textLength="64" x="448.5" y="55.5293">get groups</text><path d="M442.5,73.7031 L442.5,97.5547 L401.5,112.6172 L442.5,105.5547 L442.5,129.4063 A0,0 0 0 0 442.5,129.4063 L754.5,129.4063 A0,0 0 0 0 754.5,129.4063 L754.5,83.7031 L744.5,73.7031 L442.5,73.7031 A0,0 0 0 0 442.5,73.7031 " fill="#FBFB77" filter="url(#fmg9kijl4m25k)" style="stroke: #A80036; stroke-width: 1.0;"/><path d="M744.5,73.7031 L744.5,83.7031 L754.5,83.7031 L744.5,73.7031 " fill="#FBFB77" style="stroke: #A80036; stroke-width: 1.0;"/><text fill="#000000" font-family="sans-serif" font-size="13" lengthAdjust="spacingAndGlyphs" textLength="213" x="448.5" y="90.7637">Метод проверяет наличие группы,</text><text fill="#000000" font-family="sans-serif" font-size="13" lengthAdjust="spacingAndGlyphs" textLength="165" x="448.5" y="105.998">у пользователя используя</text><a href="https://www.npmjs.com/package/posix#posixgetgrnamgroup" target="_top" title="https://www.npmjs.com/package/posix#posixgetgrnamgroup" xlink:actuate="onRequest" xlink:href="https://www.npmjs.com/package/posix#posixgetgrnamgroup" xlink:show="new" xlink:title="https://www.npmjs.com/package/posix#posixgetgrnamgroup" xlink:type="simple"><text fill="#0000FF" font-family="sans-serif" font-size="13" lengthAdjust="spacingAndGlyphs" text-decoration="underline" textLength="123" x="616.5" y="105.998">posixgetgrnamgroup</text></a><text fill="#000000" font-family="sans-serif" font-size="13" lengthAdjust="spacingAndGlyphs" textLength="0" x="451.5" y="121.2324"/><!--MD5=[aea28b81cae0a8aa60424a571cc2f050]
class UserFactory--><rect fill="#FEFECE" filter="url(#fmg9kijl4m25k)" height="60.8906" id="UserFactory" style="stroke: #A80036; stroke-width: 1.5;" width="149" x="6" y="43"/><ellipse cx="44.4" cy="59" fill="#ADD1B2" rx="11" ry="11" style="stroke: #A80036; stroke-width: 1.0;"/><path d="M44.4469,65.2031 C45.9469,65.2031 47.1813,64.6406 48.0875,63.5781 L46.7125,62.0625 C46.1656,62.6563 45.5094,63.0469 44.7125,63.0469 C43.0406,63.0469 41.8844,61.7188 41.8844,59.4375 C41.8844,57.2188 43.0406,55.875 44.6031,55.875 C45.4156,55.875 46.0094,56.1875 46.5406,56.6719 L47.9156,55.125 C47.1656,54.3906 46.0094,53.7188 44.6031,53.7188 C41.65,53.7188 39.3219,55.8594 39.3219,59.5313 C39.3219,63.25 41.6969,65.2031 44.4469,65.2031 Z "/><text fill="#000000" font-family="sans-serif" font-size="12" lengthAdjust="spacingAndGlyphs" textLength="65" x="63.6" y="63.1016">UserFactory</text><line style="stroke: #A80036; stroke-width: 1.5;" x1="7" x2="154" y1="75" y2="75"/><line style="stroke: #A80036; stroke-width: 1.5;" x1="7" x2="154" y1="83" y2="83"/><ellipse cx="17" cy="94" fill="#84BE84" rx="3" ry="3" style="stroke: #038048; stroke-width: 1.0;"/><text fill="#000000" font-family="sans-serif" font-size="11" lengthAdjust="spacingAndGlyphs" textLength="123" x="26" y="97.2051">getCurrentUser() : User</text><!--MD5=[4ac07edb63fcbc2f7c885e8778cc3069]
link User to User$$$RIGHT--><!--MD5=[d70e4599d83ccf4c06eac7a9d983bfce]
link UserFactory to User--><path d="M155.1287,73.5 C186.7759,73.5 223.6182,73.5 255.4213,73.5 " fill="none" id="UserFactory-User" style="stroke: #A80036; stroke-width: 1.0;"/><text fill="#000000" font-family="sans-serif" font-size="13" lengthAdjust="spacingAndGlyphs" textLength="51" x="173.25" y="66.5605">создает</text><polygon fill="#000000" points="227.25,60.6172,233.25,63.6172,227.25,66.6172,227.25,60.6172" style="stroke: #000000; stroke-width: 1.0;"/><!--MD5=[4bcc392c64b0ad069f61b510e85557c2]
@startuml entities

class User{
    + uid
    + name
    - _groups
    + hasGroup(groupName)
}

note right of User::_groups
  Это приватное свойство, доступ 
  к которому должен быть реализован через
  get groups
end note

note right of User::hasGroup
  Метод проверяет наличие группы,
  у пользователя используя [[https://www.npmjs.com/package/posix#posixgetgrnamgroup posixgetgrnamgroup]]

end note

class UserFactory {
    + getCurrentUser() : User
}

UserFactory - User : создает >

@enduml

PlantUML version 1.2020.09(Sun May 10 14:51:06 SAMT 2020)
(GPL source distribution)
Java Runtime: OpenJDK Runtime Environment
JVM: OpenJDK 64-Bit Server VM
Java Version: 11.0.10+9-suse-lp152.2.9.1-x8664
Operating System: Linux
Default Encoding: UTF-8
Language: ru
Country: RU
--></g></svg>